# xmcd
#
# Track frame offsets:
#	150
#	20335
#	33390
#	48922
#	67462
#	88024
#	105128
#	121266
#	133138
#	148689
#	162339
#
# Disc length: 2329 seconds
#
# Revision: 0
# Processed by: cddbd v1.5.1PL0 Copyright (c) Steve Scherf et al.
# Submitted via: dBpowerAMP V4.0
#
DISCID=9509170b
DTITLE=Various Artist - O Babie u Lekarza
DYEAR=1900
DGENRE=Undefined
TTITLE0=Przychodzi Baba do lekarza 1
TTITLE1=Przychodzi Baba do lekarza 2
TTITLE2=Przychodzi Baba do lekarza 3
TTITLE3=Przychodzi Baba do lekarza 4
TTITLE4=Przychodzi Baba do lekarza 5
TTITLE5=Przychodzi Baba do lekarza 6
TTITLE6=Przychodzi Baba do lekarza 7
TTITLE7=Przychodzi Baba do lekarza 8
TTITLE8=Przychodzi Baba do lekarza 9
TTITLE9=Przychodzi Baba do lekarza 10
TTITLE10=Przychodzi Baba do lekarza 11
EXTD=
EXTT0=
EXTT1=
EXTT2=
EXTT3=
EXTT4=
EXTT5=
EXTT6=
EXTT7=
EXTT8=
EXTT9=
EXTT10=
PLAYORDER=
